<svg width="259" height="453" viewBox="0 0 259 453" fill="none" xmlns="http://www.w3.org/2000/svg">
<path d="M189.025 156.807L256.893 74.6699C258.717 72.5394 259.245 69.4227 258.241 66.7053C257.065 64.026 254.637 62.2975 251.949 62.2251H33.9651C33.9651 62.2251 31.2681 62.2251 31.2681 62.7225V53.7621C42.7898 51.7288 50.9908 40.2673 50.1452 27.3784C50.1477 12.4506 39.3522 0.27156 25.8751 5.61993e-06C12.0702 -0.00952262 0.740393 12.098 0.256058 27.3794C0.717166 39.3011 7.64497 49.7288 17.7842 53.7631V445.533C17.7842 449.657 20.8029 453 24.5262 453C28.2494 453 31.2681 449.657 31.2681 445.533V251.39H251.948C254.706 251.589 257.259 249.772 258.24 246.91C259.135 244.181 258.618 241.129 256.892 238.945L189.025 156.807Z" fill="#EE596D"/>
</svg>
