<svg width="81" height="128" viewBox="0 0 81 128" fill="none" xmlns="http://www.w3.org/2000/svg">
<path d="M58.9662 44.3075L80.166 21.0988C80.7359 20.4968 80.9007 19.6161 80.5871 18.8483C80.2197 18.0912 79.4614 17.6028 78.6216 17.5824H10.5297C10.5297 17.5824 9.68729 17.5824 9.68729 17.7229V15.1911C13.2863 14.6165 15.8481 11.378 15.5839 7.73607C15.5847 3.51804 12.2125 0.0767323 8.00265 1.58797e-06C3.69041 -0.00269072 0.151293 3.41842 0 7.73634C0.144037 11.105 2.30808 14.0514 5.47529 15.1913V125.89C5.47529 127.055 6.41825 128 7.58129 128C8.74433 128 9.68729 127.055 9.68729 125.89V71.033H78.6213C79.4829 71.0892 80.2804 70.5758 80.5868 69.7671C80.8663 68.996 80.7048 68.1336 80.1657 67.5166L58.9662 44.3075Z" fill="#F8896E"/>
</svg>
