<svg width="217" height="286" viewBox="0 0 217 286" fill="none" xmlns="http://www.w3.org/2000/svg">
<path d="M211.34 34.5585C208.752 33.0587 205.556 33.0587 202.969 34.5585C192.948 40.0987 181.663 42.9715 170.203 42.9C153.448 43.2692 137.247 36.9147 125.24 25.2635C111.379 11.7428 92.6377 4.3548 73.2456 4.76704C57.6282 4.63242 42.3589 9.36538 29.5739 18.3046V14.3C29.5739 6.4026 23.1495 0 15.2239 0C7.2983 0 0.873871 6.40204 0.873871 14.3V271.7C0.873871 279.597 7.2983 286 15.2239 286C23.1489 286 29.5739 279.598 29.5739 271.7V147.766C31.1591 147.618 32.6692 147.024 33.9265 146.05C45.3068 137.699 59.1136 133.28 73.2456 133.466C90.0317 133.082 106.268 139.437 118.305 151.103C132.139 164.604 150.844 171.991 170.204 171.599C185.041 171.771 199.594 167.541 212.01 159.444C214.667 157.609 216.215 154.561 216.124 151.341V42.9C216.154 39.4635 214.326 36.2768 211.34 34.5585Z" fill="#EE596D"/>
</svg>
