<svg width="81" height="128" viewBox="0 0 81 128" fill="none" xmlns="http://www.w3.org/2000/svg">
<path d="M59.2223 44.3075L80.422 21.0988C80.992 20.4968 81.1567 19.6161 80.8431 18.8483C80.4758 18.0912 79.7174 17.6028 78.8777 17.5824H10.7858C10.7858 17.5824 9.94335 17.5824 9.94335 17.7229V15.1911C13.5424 14.6165 16.1042 11.378 15.84 7.73607C15.8408 3.51804 12.4686 0.0767323 8.25871 1.58797e-06C3.94647 -0.00269072 0.40735 3.41842 0.256058 7.73634C0.400095 11.105 2.56414 14.0514 5.73134 15.1913V125.89C5.73134 127.055 6.6743 128 7.83735 128C9.00039 128 9.94335 127.055 9.94335 125.89V71.033H78.8774C79.7389 71.0892 80.5365 70.5758 80.8429 69.7671C81.1223 68.996 80.9608 68.1336 80.4218 67.5166L59.2223 44.3075Z" fill="#EE596D"/>
</svg>
