<svg width="255" height="255" viewBox="0 0 255 255" fill="none" xmlns="http://www.w3.org/2000/svg">
<path d="M170.966 50.3075L192.166 27.0988C192.736 26.4968 192.901 25.6161 192.587 24.8483C192.22 24.0912 191.461 23.6028 190.622 23.5824H122.53C122.53 23.5824 121.687 23.5824 121.687 23.7229V21.1911C125.286 20.6165 127.848 17.378 127.584 13.7361C127.585 9.51804 124.213 6.07673 120.003 6C115.69 5.99731 112.151 9.41842 112 13.7363C112.144 17.105 114.308 20.0514 117.475 21.1913V131.89C117.475 133.055 118.418 134 119.581 134C120.744 134 121.687 133.055 121.687 131.89V77.033H190.621C191.483 77.0892 192.28 76.5758 192.587 75.7671C192.866 74.996 192.705 74.1336 192.166 73.5166L170.966 50.3075Z" fill="#F8896E"/>
</svg>
